HIERARCHY
ROOT root
{
	OFFSET	0	13.1	24.9
	CHANNELS 6  Xposition Yposition Zposition Xrotation Yrotation Zrotation
	JOINT spine_1
	{
		OFFSET	0	9.99999	0
		CHANNELS 3  Xrotation Yrotation Zrotation
		JOINT spine_2
		{
			OFFSET	0	112	-10
			CHANNELS 3  Xrotation Yrotation Zrotation
			JOINT spine_3
			{
				OFFSET	0	206.5	19.3
				CHANNELS 3  Xrotation Yrotation Zrotation
				JOINT spine_4
				{
					OFFSET	0	110.4	14.6
					CHANNELS 3  Xrotation Yrotation Zrotation
					JOINT neck_1
					{
						OFFSET	0	71.8	-50.3
						CHANNELS 3  Xrotation Yrotation Zrotation
						JOINT neck_2
						{
							OFFSET	0	86.2	-25.8
							CHANNELS 3  Xrotation Yrotation Zrotation
							JOINT head_ee
							{
								OFFSET	0	179.8	-8.7
								CHANNELS 3  Xrotation Yrotation Zrotation
								End Site
								{
									OFFSET	1	0	0
								}
							}
						}
					}
					JOINT left_clavicle
					{
						OFFSET	-43.2	22.4	-70.8
						CHANNELS 3  Xrotation Yrotation Zrotation
						JOINT left_shoulder
						{
							OFFSET	-93.9	-5.79999	48.7
							CHANNELS 3  Xrotation Yrotation Zrotation
							JOINT left_elbow
							{
								OFFSET	-291.4	-30.8	15.2
								CHANNELS 3  Xrotation Yrotation Zrotation
								JOINT left_lowarm_twist
								{
									OFFSET	-110.7	-3.89999	13.6
									CHANNELS 3  Xrotation Yrotation Zrotation
									JOINT left_hand
									{
										OFFSET	-110.7	-3.89999	13.6
										CHANNELS 3  Xrotation Yrotation Zrotation
										JOINT left_ee
										{
											OFFSET	-80.8	-5.10001	12.1
											CHANNELS 3  Xrotation Yrotation Zrotation
											End Site
											{
												OFFSET	1	0	0
											}
										}
									}
								}
							}
						}
					}
					JOINT right_clavicle
					{
						OFFSET	43.2	22.4	-70.8
						CHANNELS 3  Xrotation Yrotation Zrotation
						JOINT right_shoulder
						{
							OFFSET	93.9	-5.79999	48.7
							CHANNELS 3  Xrotation Yrotation Zrotation
							JOINT right_elbow
							{
								OFFSET	291.4	-30.8	15.2
								CHANNELS 3  Xrotation Yrotation Zrotation
								JOINT right_lowarm_twist
								{
									OFFSET	110.7	-3.89999	13.6
									CHANNELS 3  Xrotation Yrotation Zrotation
									JOINT right_hand
									{
										OFFSET	110.7	-3.89999	13.6
										CHANNELS 3  Xrotation Yrotation Zrotation
										JOINT right_ee
										{
											OFFSET	80.8	-5.10001	12.1
											CHANNELS 3  Xrotation Yrotation Zrotation
											End Site
											{
												OFFSET	1	0	0
											}
										}
									}
								}
							}
						}
					}
				}
			}
		}
	}
	JOINT left_hip
	{
		OFFSET	-82.8	-127.5	0.300001
		CHANNELS 3  Xrotation Yrotation Zrotation
		JOINT left_knee
		{
			OFFSET	-28.2	-396.7	2.2
			CHANNELS 3  Xrotation Yrotation Zrotation
			JOINT left_ankle
			{
				OFFSET	-11.7	-411.3	35.4
				CHANNELS 3  Xrotation Yrotation Zrotation
				JOINT left_toes
				{
					OFFSET	0	-60	-88.6
					CHANNELS 3  Xrotation Yrotation Zrotation
					JOINT left_foot_ee
					{
						OFFSET	-22.5	-16.5	-42.2
						CHANNELS 3  Xrotation Yrotation Zrotation
						End Site
						{
							OFFSET	1	0	0
						}
					}
				}
			}
		}
	}
	JOINT right_hip
	{
		OFFSET	82.8	-127.5	0.300001
		CHANNELS 3  Xrotation Yrotation Zrotation
		JOINT right_knee
		{
			OFFSET	28.2	-396.7	2.2
			CHANNELS 3  Xrotation Yrotation Zrotation
			JOINT right_ankle
			{
				OFFSET	11.7	-411.3	35.4
				CHANNELS 3  Xrotation Yrotation Zrotation
				JOINT right_toes
				{
					OFFSET	0	-60	-88.6
					CHANNELS 3  Xrotation Yrotation Zrotation
					JOINT right_foot_ee
					{
						OFFSET	22.5	-16.5	-42.2
						CHANNELS 3  Xrotation Yrotation Zrotation
						End Site
						{
							OFFSET	1	0	0
						}
					}
				}
			}
		}
	}
}
MOTION
Frames: 8
Frame Time: 0.02
1041.4 574.639 -1682.42 10.4027394098 19.5957839912 4.88720890515 -5.19781 -0.242872 -1.72606 -5.19616 -0.132563 -1.73802 -5.18904 0.391015 -1.69865 -5.19305 0.11788 -1.73907 11.2009 17.1124 8.2052 11.7574 20.167 10.0019 -0.0 0.0 -0.0 2.85822 13.9481 6.30369 -14.3616 -17.944 73.6361 0.941299 -24.9989 0.208676 -11.0866 -0.519834 1.3165 1.38689 -3.33362 7.94203 -0.0 0.0 -0.0 10.7237 11.4681 -21.4078 1.12424 29.3535 -46.0322 1.64189 39.12 -0.583396 34.0472 0.0763658 4.2853 1.61911 5.8128 -8.48677 0.0 0.0 0.0 5.91838 -47.7281 -19.6369 -14.691 0.32109 2.22548 -11.3892 28.5598 1.80848 31.2551 -0.0 -0.0 -0.0 0.0 -0.0 -14.5648 28.4888 -8.56966 -21.531 -0.274304 -3.2733 31.2241 -17.0826 4.09333 23.7484 -0.0 -0.0 0.0 0.0 0.0 
1041.4 574.639 -1682.42 10.4444431792 20.2217312621 4.76474111237 -5.19781 -0.242872 -1.72606 -5.19616 -0.132563 -1.73802 -5.18904 0.391015 -1.69865 -5.19305 0.11788 -1.73907 11.2009 17.1124 8.2052 11.7574 20.167 10.0019 -0.0 0.0 -0.0 2.85822 13.9481 6.30369 -14.3616 -17.944 73.6361 0.941299 -24.9989 0.208676 -11.0866 -0.519834 1.3165 1.38689 -3.33362 7.94203 -0.0 0.0 -0.0 10.7237 11.4681 -21.4078 1.12424 29.3535 -46.0322 1.64189 39.12 -0.583396 34.0472 0.0763658 4.2853 1.61911 5.8128 -8.48677 0.0 0.0 0.0 5.91838 -47.7281 -19.6369 -14.691 0.32109 2.22548 -11.3892 28.5598 1.80848 31.2551 -0.0 -0.0 -0.0 0.0 -0.0 -14.5648 28.4888 -8.56966 -21.531 -0.274304 -3.2733 31.2241 -17.0826 4.09333 23.7484 -0.0 -0.0 0.0 0.0 0.0 
1041.4 574.639 -1682.42 10.5049152106 21.0893542683 4.59331532454 -5.19781 -0.242872 -1.72606 -5.19616 -0.132563 -1.73802 -5.18904 0.391015 -1.69865 -5.19305 0.11788 -1.73907 11.2009 17.1124 8.2052 11.7574 20.167 10.0019 -0.0 0.0 -0.0 2.85822 13.9481 6.30369 -14.3616 -17.944 73.6361 0.941299 -24.9989 0.208676 -11.0866 -0.519834 1.3165 1.38689 -3.33362 7.94203 -0.0 0.0 -0.0 10.7237 11.4681 -21.4078 1.12424 29.3535 -46.0322 1.64189 39.12 -0.583396 34.0472 0.0763658 4.2853 1.61911 5.8128 -8.48677 0.0 0.0 0.0 5.91838 -47.7281 -19.6369 -14.691 0.32109 2.22548 -11.3892 28.5598 1.80848 31.2551 -0.0 -0.0 -0.0 0.0 -0.0 -14.5648 28.4888 -8.56966 -21.531 -0.274304 -3.2733 31.2241 -17.0826 4.09333 23.7484 -0.0 -0.0 0.0 0.0 0.0 
1041.4 574.639 -1682.42 10.5338361337 21.4890516888 4.51366045664 -5.19781 -0.242872 -1.72606 -5.19616 -0.132563 -1.73802 -5.18904 0.391015 -1.69865 -5.19305 0.11788 -1.73907 11.2009 17.1124 8.2052 11.7574 20.167 10.0019 -0.0 0.0 -0.0 2.85822 13.9481 6.30369 -14.3616 -17.944 73.6361 0.941299 -24.9989 0.208676 -11.0866 -0.519834 1.3165 1.38689 -3.33362 7.94203 -0.0 0.0 -0.0 10.7237 11.4681 -21.4078 1.12424 29.3535 -46.0322 1.64189 39.12 -0.583396 34.0472 0.0763658 4.2853 1.61911 5.8128 -8.48677 0.0 0.0 0.0 5.91838 -47.7281 -19.6369 -14.691 0.32109 2.22548 -11.3892 28.5598 1.80848 31.2551 -0.0 -0.0 -0.0 0.0 -0.0 -14.5648 28.4888 -8.56966 -21.531 -0.274304 -3.2733 31.2241 -17.0826 4.09333 23.7484 -0.0 -0.0 0.0 0.0 0.0 
1029.49097433 580.996 -1696.34684127 10.6970092738 22.6848159994 5.42074515127 -4.96596 -0.180989 -1.88497 -4.96399 -0.0606985 -1.89266 -4.9586 0.498383 -1.82689 -4.9632 0.203659 -1.88265 9.38794 16.4762 8.59832 9.89481 19.3499 10.47 -0.0 0.0 -0.0 2.47456 12.5957 5.60194 -14.1123 -18.6173 73.9043 1.01048 -26.5902 0.238781 -11.8923 -0.567421 1.40794 1.50858 -4.25173 8.38809 -0.0 0.0 -0.0 11.1712 11.2284 -22.4087 -1.12412 29.8555 -45.521 1.45996 35.8731 -0.472606 32.8031 0.0287566 4.13359 2.15103 6.98651 -11.6329 0.0 0.0 0.0 4.87517 -47.4888 -19.9859 -17.6928 0.315966 2.68596 -11.735 29.3605 1.87376 33.0135 -0.0 -0.0 -0.0 0.0 -0.0 -13.2911 20.8201 -9.33999 -25.0071 -0.202705 -3.80184 29.5134 -14.9103 3.88042 24.1416 -0.0 -0.0 0.0 0.0 0.0 
1029.36545897 580.996 -1696.2385246 10.7378098297 23.1941629074 5.31606464733 -4.96596 -0.180989 -1.88497 -4.96399 -0.0606985 -1.89266 -4.9586 0.498383 -1.82689 -4.9632 0.203659 -1.88265 9.38794 16.4762 8.59832 9.89481 19.3499 10.47 -0.0 0.0 -0.0 2.47456 12.5957 5.60194 -14.1123 -18.6173 73.9043 1.01048 -26.5902 0.238781 -11.8923 -0.567421 1.40794 1.50858 -4.25173 8.38809 -0.0 0.0 -0.0 11.1712 11.2284 -22.4087 -1.12412 29.8555 -45.521 1.45996 35.8731 -0.472606 32.8031 0.0287566 4.13359 2.15103 6.98651 -11.6329 0.0 0.0 0.0 4.87517 -47.4888 -19.9859 -17.6928 0.315966 2.68596 -11.735 29.3605 1.87376 33.0135 -0.0 -0.0 -0.0 0.0 -0.0 -13.2911 20.8201 -9.33999 -25.0071 -0.202705 -3.80184 29.5134 -14.9103 3.88042 24.1416 -0.0 -0.0 0.0 0.0 0.0 
1015.18845451 592.292 -1709.19848171 11.6400914462 25.4941640706 5.01408099798 -5.48157 -0.336811 -1.89937 -5.47958 -0.215289 -1.91695 -5.46831 0.374544 -1.8923 -5.47331 0.0710487 -1.92769 8.5493 16.6171 9.533 9.0486 18.9945 11.5909 -0.0 0.0 -0.0 2.38476 13.5998 5.50988 -13.0236 -18.2729 74.2644 1.08264 -28.2042 0.27199 -11.9902 -0.573289 1.41901 1.33818 -4.4055 7.16561 -0.0 0.0 -0.0 11.603 10.8152 -23.3804 -1.27111 26.7988 -46.3019 1.39454 34.6354 -0.434845 31.4696 -0.0185987 3.96988 2.28147 5.74268 -13.0649 0.0 0.0 0.0 4.17263 -47.344 -19.545 -16.8984 0.31967 2.56414 -16.9695 29.1572 2.71842 32.7181 -0.0 -0.0 -0.0 0.0 -0.0 -11.2804 22.076 -9.87077 -27.0295 -0.146331 -4.10708 28.1879 -7.75545 3.6924 24.1501 -0.0 -0.0 0.0 0.0 0.0 
982.255174487 605.073 -1732.14759108 12.845394687 27.173408234 4.15814052255 -5.72981 -0.520736 -1.70681 -5.72828 -0.411089 -1.73648 -5.712 0.140787 -1.7789 -5.71639 -0.141878 -1.77881 8.93944 16.4305 10.2078 9.40437 17.9153 12.4225 -0.0 0.0 -0.0 2.29492 13.5611 5.36007 -10.0537 -17.8724 74.1173 1.14597 -29.5816 0.30259 -11.0548 -0.51798 1.31287 1.05234 -4.15583 5.33332 -0.0 0.0 -0.0 11.6868 10.2871 -23.5706 -3.92452 24.7747 -46.8524 1.23353 31.426 -0.347045 28.8132 -0.101508 3.64073 2.5099 3.87297 -15.4417 0.0 0.0 0.0 0.222487 -46.6354 -17.9101 -18.623 0.309484 2.82853 -20.5439 29.2511 3.29901 33.0519 -0.0 -0.0 -0.0 0.0 -0.0 -5.65694 20.5422 -12.4255 -33.4888 0.105297 -5.06589 26.6113 -3.52454 3.5199 24.1371 -0.0 -0.0 0.0 0.0 0.0 
